<?xml version="1.0" encoding="UTF-8"?>
<svg width="1024px" height="1024px" viewBox="0 0 1024 1024" xmlns="http://www.w3.org/2000/svg" xmlns:xlink="http://www.w3.org/1999/xlink" version="1.1">
 <!-- Generated by Pixelmator Pro 1.5.6 -->
 <path id="Path" d="M956.854 731.739 C949.13 626.911 866.372 544.153 761.544 536.428 L761.544 469.118 731.752 469.118 731.752 536.428 C626.924 544.151 544.165 626.91 536.441 731.739 L469.131 731.739 469.131 761.532 536.441 761.532 C544.164 866.359 626.923 949.118 731.752 956.841 L731.752 1024.153 761.544 1024.153 761.544 956.841 C866.372 949.118 949.13 866.359 956.854 761.532 L1024.165 761.532 1024.165 731.739 Z M875.2 875.187 C845.406 904.98 805.682 923.738 761.544 928.152 L761.544 845.393 731.752 845.393 731.752 928.152 C687.614 924.843 647.889 904.98 618.096 875.187 588.303 845.393 569.544 805.67 565.13 761.532 L648.993 761.532 648.993 731.738 566.234 731.738 C569.544 687.6 589.407 647.876 619.199 618.083 648.993 588.289 688.717 569.531 732.855 565.117 L732.855 648.979 762.647 648.979 762.647 566.22 C806.785 569.531 846.509 589.394 876.303 619.186 906.096 648.979 924.855 688.704 929.268 732.842 L846.509 732.842 846.509 762.635 929.268 762.635 C923.75 805.67 904.992 845.393 875.2 875.186 Z" fill="#000000" fill-opacity="1" stroke="none"/>
 <path id="Path-1" d="M0.2 0.6 L0.2 1024.6 448.199 1024.6 448.199 952.876 73.027 952.876 73.027 149.566 953.579 149.566 953.579 446.393 1024.2 446.393 1024.2 0.6 Z M107.234 105.428 C87.372 105.428 71.924 89.979 71.924 70.117 71.924 50.255 87.372 34.807 107.234 34.807 127.096 34.807 142.545 50.255 142.545 70.117 142.545 89.979 127.096 105.428 107.234 105.428 Z M217.578 105.428 C197.717 105.428 182.269 89.979 182.269 70.117 182.269 50.255 197.717 34.807 217.578 34.807 237.441 34.807 252.89 50.255 252.89 70.117 252.89 89.979 237.441 105.428 217.578 105.428 Z M327.923 105.428 C308.062 105.428 292.613 89.979 292.613 70.117 292.613 50.255 308.062 34.807 327.923 34.807 347.786 34.807 363.234 50.255 363.234 70.117 363.234 89.979 347.786 105.428 327.923 105.428 Z" fill="#000000" fill-opacity="1" stroke="none"/>
</svg>
